<mxfile host="app.diagrams.net" modified="2024-02-13T12:37:55.398Z" agent="Mozilla/5.0 (Windows NT 10.0; Win64; x64) AppleWebKit/537.36 (KHTML, like Gecko) Chrome/121.0.0.0 Safari/537.36" version="23.1.3" etag="-gOzfdvHCChNgtt9v63E" type="github">
  <diagram name="Страница — 1" id="_H2hQ7bNsw8dBIZgRJfn">
    <mxGraphModel>
      <root>
        <mxCell id="0" />
        <mxCell id="1" parent="0" />
      </root>
    </mxGraphModel>
  </diagram>
</mxfile>
